<svg width="170" height="132" viewBox="0 0 170 132" fill="none" xmlns="http://www.w3.org/2000/svg">
<path d="M0 10C0 4.47715 4.47715 0 10 0H160C165.523 0 170 4.47715 170 10V120C170 125.523 165.523 130 160 130H10C4.47715 130 0 125.523 0 120V10Z" fill="#FFF7DA"/>
<path d="M46.7296 112.975H18.4645V130.481H46.7296V112.975Z" fill="#FF8A00"/>
<path d="M62.04 112.975H47.9074V130.481H62.04V112.975Z" fill="#FF8A00"/>
<path d="M18.362 111.976L10 104.437L42.0304 104.417L46.7297 112.006L18.362 111.976Z" fill="#FF8A00"/>
<path d="M62.0212 111.987L67.6419 104.417L53.8543 104.446L47.9099 112.006L62.0212 111.987Z" fill="#FF8A00"/>
<path d="M37.0542 122.065C37.04 121.997 36.9863 121.934 36.9034 121.888C36.8204 121.843 36.714 121.818 36.604 121.818H28.5411C28.4311 121.818 28.3247 121.843 28.2417 121.888C28.1588 121.934 28.1052 121.997 28.0909 122.065C28.0909 122.105 27.3751 125.873 32.3992 126.629L32.4983 126.643H32.5838C32.646 126.642 32.7073 126.633 32.7639 126.617C37.761 125.859 37.0542 122.102 37.0542 122.065Z" fill="#FFF7DA"/>
<path d="M33.8397 117.764C33.4739 117.614 33.0613 117.514 32.6296 117.473C32.1979 117.431 31.757 117.448 31.3366 117.523C31.2613 117.536 31.1926 117.561 31.1373 117.596C31.0821 117.631 31.0421 117.674 31.0215 117.722C30.8707 118.05 30.8614 118.397 30.9943 118.728C31.1273 119.059 31.3977 119.362 31.7778 119.605C31.7998 119.62 31.8239 119.633 31.8498 119.645C31.8902 119.67 31.938 119.69 31.9906 119.703C32.0432 119.716 32.0994 119.723 32.156 119.722H33.5876C33.707 119.722 33.8215 119.692 33.9059 119.639C33.9904 119.585 34.0378 119.513 34.0378 119.438V118.031C34.0368 118.027 34.0368 118.022 34.0378 118.017C34.0425 117.968 34.0267 117.918 33.992 117.874C33.9572 117.83 33.9047 117.792 33.8397 117.764Z" fill="#FFF7DA"/>
<path d="M35.2974 119.154H29.8951C29.5995 119.154 29.3068 119.19 29.0337 119.262C28.7606 119.333 28.5124 119.438 28.3034 119.57C28.0944 119.702 27.9286 119.858 27.8154 120.031C27.7023 120.203 27.6441 120.388 27.6441 120.574V121.143C27.6441 121.218 27.6915 121.29 27.776 121.343C27.8604 121.397 27.9749 121.427 28.0943 121.427H37.0982C37.2176 121.427 37.3321 121.397 37.4165 121.343C37.501 121.29 37.5484 121.218 37.5484 121.143V120.574C37.5484 120.388 37.4902 120.203 37.377 120.031C37.2639 119.858 37.0981 119.702 36.8891 119.57C36.6801 119.438 36.4319 119.333 36.1588 119.262C35.8857 119.19 35.593 119.154 35.2974 119.154Z" fill="#FFF7DA"/>
<path d="M97.206 110.627C90.0737 97.4845 60.5804 109.76 76.9145 127.387L74.0479 127.225C65.3641 126.735 63.5504 130.788 66.0547 130.858C94.8059 131.363 68.6542 130.904 89.1156 131.379C126.757 131.666 137.969 132.08 148.069 124.311C163.856 112.166 162.742 100.253 149.282 90.2865C128.668 75.0234 129.5 41.552 159.954 37.4791C151.386 18.3038 113.816 12.7836 92.3456 26.9613C56.7336 62.739 106.223 90.8295 123.722 106.614C128.734 111.135 137.216 127.958 96.8026 128.665C111.883 129.306 119.713 107.288 101.661 97.1005C96.8861 86.4889 87.4445 80.874 80.2409 77.0891C84.093 71.0384 75.4066 60.5739 74.0496 57.7266C73.0637 58.2207 72.2766 59.603 68.581 62.5906C66.0576 64.6305 50.1237 66.9504 51.517 78.4615C54.8718 82.9678 66.2729 79.9738 66.2729 79.9738C71.931 84.2123 60.5626 88.1745 51.4899 87.311C43.0601 86.5571 44.3324 91.2901 44.3324 91.2901C45.3413 92.4397 43.0627 93.6905 61.4602 94.5416C63.3866 94.7352 67.1362 94.3741 67.1362 94.3741C67.1362 94.3741 64.7413 102.448 75.264 109.403" fill="#FF8A00"/>
<path d="M65.2842 94.5479C72.903 94.1384 76.2371 91.5131 76.3203 89.082" stroke="black" stroke-width="0.00995011"/>
<path d="M66.7797 68.9914C67.7201 68.3318 67.817 67.22 66.9961 66.5081C66.1752 65.7963 64.7473 65.754 63.8068 66.4136C62.8664 67.0732 62.7695 68.185 63.5904 68.8968C64.4114 69.6086 65.8392 69.651 66.7797 68.9914Z" fill="#FFF7DA"/>
<path d="M108.731 65.3037C87.2763 27.1194 151.136 14.2733 160 37.4949C129.547 41.5677 128.962 74.5238 149.576 89.787C163.036 99.7536 164.206 111.757 148.418 123.902C145.635 126.795 140.505 129.02 134.07 130.204C132.357 130.518 131.878 130.043 130 130.204C171.48 110.412 119.278 81.9177 108.731 65.3037Z" fill="#FFAB07"/>
</svg>
