<svg width="159" height="56" viewBox="0 0 159 56" fill="none" xmlns="http://www.w3.org/2000/svg">
<path d="M86.848 43.124C86.4 43.124 86.04 42.996 85.768 42.74C85.512 42.484 85.376 42.004 85.36 41.3C85.344 40.564 85.448 39.596 85.672 38.396C85.912 37.212 86.168 35.98 86.44 34.7C85.992 35.34 85.48 35.852 84.904 36.236C84.344 36.62 83.68 36.812 82.912 36.812C81.952 36.812 81.192 36.484 80.632 35.828C80.088 35.172 79.816 34.252 79.816 33.068C79.816 32.284 79.936 31.516 80.176 30.764C80.416 30.012 80.776 29.332 81.256 28.724C81.736 28.1 82.336 27.604 83.056 27.236C83.776 26.868 84.608 26.684 85.552 26.684C86.144 26.684 86.688 26.764 87.184 26.924C87.696 27.084 88.112 27.3 88.432 27.572C88.704 27.796 88.872 28.004 88.936 28.196C89 28.388 89.032 28.596 89.032 28.82C89.032 29.284 88.984 29.852 88.888 30.524C88.808 31.196 88.704 31.86 88.576 32.516C88.448 33.172 88.336 33.732 88.24 34.196C88.096 34.948 87.976 35.74 87.88 36.572C87.8 37.42 87.76 38.196 87.76 38.9C87.76 39.412 87.808 39.836 87.904 40.172C88 40.524 88.24 40.804 88.624 41.012C88.72 41.06 88.8 41.108 88.864 41.156C88.944 41.22 88.984 41.308 88.984 41.42C88.984 41.548 88.92 41.748 88.792 42.02C88.664 42.308 88.448 42.564 88.144 42.788C87.84 43.012 87.408 43.124 86.848 43.124ZM83.656 34.244C84.104 34.244 84.552 34.108 85 33.836C85.448 33.548 85.848 33.156 86.2 32.66C86.44 32.292 86.648 31.876 86.824 31.412C87 30.948 87.104 30.444 87.136 29.9C86.88 29.772 86.528 29.644 86.08 29.516C85.648 29.372 85.176 29.3 84.664 29.3C83.72 29.3 82.984 29.564 82.456 30.092C81.944 30.604 81.688 31.236 81.688 31.988C81.688 32.66 81.88 33.204 82.264 33.62C82.648 34.036 83.112 34.244 83.656 34.244ZM94.0683 36.812C93.2683 36.812 92.6443 36.58 92.1963 36.116C91.7643 35.652 91.5483 34.98 91.5483 34.1C91.5483 33.476 91.6363 32.836 91.8123 32.18C91.8923 31.908 91.9563 31.636 92.0043 31.364C92.0523 31.092 92.0763 30.82 92.0763 30.548C92.0763 29.844 91.8603 29.388 91.4283 29.18C91.0123 28.956 90.8043 28.716 90.8043 28.46C90.8043 28.204 90.9083 27.948 91.1163 27.692C91.3403 27.436 91.6123 27.228 91.9323 27.068C92.2523 26.892 92.5723 26.804 92.8923 26.804C93.8043 26.804 94.2603 27.548 94.2603 29.036C94.2603 29.516 94.2203 29.964 94.1403 30.38C94.0763 30.78 93.9963 31.164 93.9003 31.532C93.8363 31.788 93.7803 32.044 93.7323 32.3C93.7003 32.556 93.6842 32.78 93.6842 32.972C93.6842 33.772 94.0763 34.172 94.8603 34.172C95.5963 34.172 96.2843 33.78 96.9243 32.996C97.5643 32.212 98.0923 31.116 98.5083 29.708L98.4843 29.252C98.4523 28.452 98.5883 27.844 98.8923 27.428C99.2123 27.012 99.6763 26.804 100.284 26.804C100.812 26.804 101.076 26.972 101.076 27.308C101.076 27.42 101.052 27.564 101.004 27.74C100.972 27.916 100.916 28.124 100.836 28.364C100.676 28.956 100.54 29.588 100.428 30.26C100.316 30.916 100.26 31.524 100.26 32.084C100.26 32.708 100.356 33.228 100.548 33.644C100.74 34.044 101.1 34.316 101.628 34.46C101.772 34.476 101.884 34.524 101.964 34.604C102.06 34.668 102.108 34.812 102.108 35.036C102.108 35.42 101.948 35.796 101.628 36.164C101.308 36.532 100.844 36.716 100.236 36.716C99.0683 36.716 98.4843 35.892 98.4843 34.244C98.4843 33.956 98.5083 33.524 98.5563 32.948L98.5083 32.924C97.5003 35.516 96.0203 36.812 94.0683 36.812ZM105.483 24.572C105.035 24.556 104.675 24.42 104.403 24.164C104.131 23.908 103.995 23.548 103.995 23.084C104.011 22.588 104.179 22.188 104.499 21.884C104.819 21.564 105.227 21.412 105.723 21.428C106.187 21.444 106.547 21.58 106.803 21.836C107.075 22.092 107.203 22.452 107.187 22.916C107.171 23.396 107.011 23.796 106.707 24.116C106.403 24.42 105.995 24.572 105.483 24.572ZM105.507 36.74C105.027 36.74 104.651 36.612 104.379 36.356C104.107 36.084 103.971 35.628 103.971 34.988C103.971 34.62 104.003 34.26 104.067 33.908C104.147 33.556 104.235 33.212 104.331 32.876C104.443 32.524 104.531 32.164 104.595 31.796C104.675 31.428 104.715 31.036 104.715 30.62C104.715 30.332 104.675 30.06 104.595 29.804C104.515 29.532 104.339 29.332 104.067 29.204C103.859 29.092 103.675 28.98 103.515 28.868C103.371 28.74 103.299 28.58 103.299 28.388C103.299 28.164 103.403 27.924 103.611 27.668C103.819 27.412 104.091 27.196 104.427 27.02C104.779 26.828 105.139 26.732 105.507 26.732C105.907 26.732 106.195 26.836 106.371 27.044C106.563 27.252 106.691 27.516 106.755 27.836C106.819 28.156 106.851 28.484 106.851 28.82C106.851 29.332 106.811 29.836 106.731 30.332C106.651 30.812 106.571 31.26 106.491 31.676C106.427 31.98 106.379 32.26 106.347 32.516C106.315 32.772 106.299 33.012 106.299 33.236C106.299 33.636 106.395 33.94 106.587 34.148C106.779 34.34 107.051 34.524 107.403 34.7C107.547 34.78 107.619 34.9 107.619 35.06C107.619 35.188 107.555 35.388 107.427 35.66C107.299 35.932 107.075 36.18 106.755 36.404C106.451 36.628 106.035 36.74 105.507 36.74ZM110.86 36.764C110.604 36.764 110.396 36.716 110.236 36.62C110.092 36.54 110.044 36.396 110.092 36.188C110.268 35.5 110.412 34.804 110.524 34.1C110.652 33.38 110.716 32.692 110.716 32.036C110.716 31.188 110.66 30.572 110.548 30.188C110.452 29.788 110.316 29.516 110.14 29.372C109.964 29.212 109.748 29.092 109.492 29.012C109.38 28.964 109.276 28.9 109.18 28.82C109.1 28.74 109.06 28.628 109.06 28.484C109.06 28.26 109.148 28.012 109.324 27.74C109.5 27.468 109.748 27.236 110.068 27.044C110.388 26.836 110.756 26.732 111.172 26.732C111.716 26.732 112.092 26.924 112.3 27.308C112.524 27.676 112.636 28.164 112.636 28.772C112.924 28.132 113.276 27.628 113.692 27.26C114.124 26.876 114.66 26.684 115.3 26.684C115.732 26.684 116.092 26.78 116.38 26.972C116.668 27.164 116.812 27.476 116.812 27.908C116.812 28.34 116.668 28.748 116.38 29.132C116.108 29.5 115.828 29.684 115.54 29.684C115.492 29.684 115.436 29.676 115.372 29.66C115.308 29.644 115.252 29.604 115.204 29.54C114.996 29.284 114.74 29.156 114.436 29.156C113.972 29.156 113.564 29.46 113.212 30.068C112.86 30.676 112.668 31.516 112.636 32.588C112.652 32.988 112.66 33.396 112.66 33.812C112.676 34.228 112.684 34.532 112.684 34.724C112.684 35.316 112.516 35.804 112.18 36.188C111.86 36.572 111.42 36.764 110.86 36.764ZM118.993 36.764C118.737 36.764 118.529 36.716 118.369 36.62C118.225 36.54 118.177 36.396 118.225 36.188C118.401 35.5 118.545 34.804 118.657 34.1C118.785 33.38 118.849 32.692 118.849 32.036C118.849 31.188 118.793 30.572 118.681 30.188C118.585 29.788 118.449 29.516 118.273 29.372C118.097 29.212 117.881 29.092 117.625 29.012C117.513 28.964 117.409 28.9 117.313 28.82C117.233 28.74 117.193 28.628 117.193 28.484C117.193 28.26 117.281 28.012 117.457 27.74C117.633 27.468 117.881 27.236 118.201 27.044C118.521 26.836 118.889 26.732 119.305 26.732C119.849 26.732 120.225 26.924 120.433 27.308C120.657 27.676 120.769 28.164 120.769 28.772C121.057 28.132 121.409 27.628 121.825 27.26C122.257 26.876 122.793 26.684 123.433 26.684C123.865 26.684 124.225 26.78 124.513 26.972C124.801 27.164 124.945 27.476 124.945 27.908C124.945 28.34 124.801 28.748 124.513 29.132C124.241 29.5 123.961 29.684 123.673 29.684C123.625 29.684 123.569 29.676 123.505 29.66C123.441 29.644 123.385 29.604 123.337 29.54C123.129 29.284 122.873 29.156 122.569 29.156C122.105 29.156 121.697 29.46 121.345 30.068C120.993 30.676 120.801 31.516 120.769 32.588C120.785 32.988 120.793 33.396 120.793 33.812C120.809 34.228 120.817 34.532 120.817 34.724C120.817 35.316 120.649 35.804 120.313 36.188C119.993 36.572 119.553 36.764 118.993 36.764ZM128.985 36.812C127.769 36.812 126.817 36.468 126.129 35.78C125.457 35.076 125.121 34.1 125.121 32.852C125.121 31.716 125.369 30.684 125.865 29.756C126.361 28.828 127.025 28.092 127.857 27.548C128.705 26.988 129.633 26.708 130.641 26.708C131.601 26.708 132.369 26.948 132.945 27.428C133.521 27.892 133.809 28.516 133.809 29.3C133.809 29.924 133.617 30.5 133.233 31.028C132.849 31.556 132.337 31.98 131.697 32.3C131.057 32.604 130.345 32.756 129.561 32.756C128.601 32.756 127.817 32.54 127.209 32.108C127.225 32.844 127.473 33.436 127.953 33.884C128.449 34.332 129.081 34.556 129.849 34.556C130.313 34.556 130.785 34.476 131.265 34.316C131.761 34.14 132.185 33.908 132.537 33.62C132.761 33.428 132.969 33.332 133.161 33.332C133.321 33.332 133.449 33.388 133.545 33.5C133.657 33.596 133.713 33.724 133.713 33.884C133.713 34.236 133.409 34.7 132.801 35.276C131.729 36.3 130.457 36.812 128.985 36.812ZM129.345 31.172C129.921 31.172 130.401 31.052 130.785 30.812C131.169 30.572 131.361 30.268 131.361 29.9C131.361 29.596 131.233 29.364 130.977 29.204C130.721 29.028 130.369 28.94 129.921 28.94C129.329 28.94 128.809 29.1 128.361 29.42C127.929 29.724 127.617 30.156 127.425 30.716C127.649 30.86 127.937 30.972 128.289 31.052C128.641 31.132 128.993 31.172 129.345 31.172ZM137.235 36.74C136.771 36.74 136.427 36.612 136.203 36.356C135.979 36.1 135.867 35.652 135.867 35.012C135.867 34.708 135.891 34.316 135.939 33.836C135.987 33.356 136.043 32.836 136.107 32.276C136.203 31.588 136.283 30.868 136.347 30.116C136.427 29.364 136.467 28.644 136.467 27.956C136.467 26.98 136.419 25.972 136.323 24.932C136.243 23.876 136.003 22.956 135.603 22.172C135.459 21.852 135.387 21.62 135.387 21.476C135.387 21.268 135.475 21.068 135.651 20.876C135.843 20.684 136.075 20.524 136.347 20.396C136.619 20.252 136.883 20.18 137.139 20.18C137.555 20.18 137.867 20.372 138.075 20.756C138.283 21.124 138.419 21.636 138.483 22.292C138.547 22.932 138.579 23.668 138.579 24.5C138.579 25.764 138.523 26.86 138.411 27.788C138.315 28.716 138.219 29.532 138.123 30.236C138.059 30.7 137.995 31.14 137.931 31.556C137.883 31.972 137.859 32.348 137.859 32.684C137.859 33.244 137.947 33.652 138.123 33.908C138.315 34.148 138.619 34.388 139.035 34.628C139.147 34.692 139.227 34.756 139.275 34.82C139.339 34.868 139.371 34.948 139.371 35.06C139.371 35.188 139.307 35.388 139.179 35.66C139.051 35.932 138.827 36.18 138.507 36.404C138.203 36.628 137.779 36.74 137.235 36.74ZM144.28 25.556C143.912 25.556 143.728 25.38 143.728 25.028C143.728 24.836 143.784 24.66 143.896 24.5C144.216 23.972 144.552 23.452 144.904 22.94C145.272 22.428 145.648 21.98 146.032 21.596C146.4 21.228 146.768 21.044 147.136 21.044C147.392 21.044 147.656 21.164 147.928 21.404C148.216 21.644 148.36 21.932 148.36 22.268C148.36 22.412 148.32 22.58 148.24 22.772C148.16 22.948 148.032 23.116 147.856 23.276C147.456 23.676 146.976 24.052 146.416 24.404C145.872 24.756 145.312 25.092 144.736 25.412C144.576 25.508 144.424 25.556 144.28 25.556ZM153.299 36.812C152.707 36.812 152.155 36.724 151.643 36.548C151.131 36.372 150.715 36.124 150.395 35.804C150.075 35.484 149.915 35.1 149.915 34.652C149.915 34.412 149.971 34.188 150.083 33.98C150.211 33.756 150.411 33.644 150.683 33.644C150.827 33.644 150.979 33.684 151.139 33.764C151.427 33.924 151.795 34.076 152.243 34.22C152.691 34.348 153.163 34.412 153.659 34.412C154.219 34.412 154.715 34.332 155.147 34.172C155.579 34.012 155.795 33.788 155.795 33.5C155.795 33.276 155.627 33.116 155.291 33.02C154.971 32.924 154.427 32.82 153.659 32.708C153.131 32.612 152.619 32.5 152.123 32.372C151.627 32.244 151.219 32.028 150.899 31.724C150.579 31.404 150.419 30.94 150.419 30.332C150.419 29.74 150.579 29.172 150.899 28.628C151.235 28.068 151.731 27.604 152.387 27.236C153.043 26.868 153.843 26.684 154.787 26.684C155.283 26.684 155.763 26.74 156.227 26.852C156.691 26.964 157.075 27.132 157.379 27.356C157.683 27.58 157.835 27.86 157.835 28.196C157.835 28.484 157.731 28.748 157.523 28.988C157.331 29.228 157.099 29.428 156.827 29.588C156.571 29.732 156.355 29.804 156.179 29.804C156.051 29.804 155.899 29.716 155.723 29.54C155.451 29.316 155.147 29.164 154.811 29.084C154.491 28.988 154.171 28.94 153.851 28.94C153.371 28.94 152.979 29.012 152.675 29.156C152.387 29.3 152.243 29.484 152.243 29.708C152.243 29.916 152.363 30.084 152.603 30.212C152.859 30.34 153.171 30.436 153.539 30.5C153.907 30.548 154.259 30.596 154.595 30.644C155.523 30.772 156.259 30.996 156.803 31.316C157.347 31.62 157.619 32.164 157.619 32.948C157.619 33.556 157.443 34.164 157.091 34.772C156.755 35.364 156.259 35.852 155.603 36.236C154.963 36.62 154.195 36.812 153.299 36.812ZM86.4205 53.682C86.0752 53.682 85.7765 53.6213 85.5245 53.5C85.2819 53.3787 85.0672 53.2247 84.8805 53.038C84.7872 53.1967 84.6752 53.3413 84.5445 53.472C84.4232 53.5933 84.2832 53.654 84.1245 53.654C84.0219 53.654 83.9239 53.6213 83.8305 53.556C83.7372 53.5 83.6999 53.4207 83.7185 53.318C83.8585 52.5713 83.9752 51.8153 84.0685 51.05C84.1712 50.2847 84.2225 49.5053 84.2225 48.712C84.2225 48.0493 84.1992 47.4287 84.1525 46.85C84.1059 46.2713 83.9612 45.7393 83.7185 45.254C83.6719 45.1607 83.6299 45.072 83.5925 44.988C83.5645 44.904 83.5505 44.8247 83.5505 44.75C83.5505 44.5727 83.6532 44.4 83.8585 44.232C84.0639 44.064 84.2832 43.98 84.5165 43.98C84.8525 43.98 85.0812 44.1853 85.2025 44.596C85.3239 45.0067 85.3845 45.6133 85.3845 46.416C85.3845 47.0973 85.3519 47.7227 85.2865 48.292C85.2305 48.852 85.1652 49.3327 85.0905 49.734C85.3519 49.1833 85.7065 48.7213 86.1545 48.348C86.6119 47.9653 87.1252 47.774 87.6945 47.774C88.2639 47.774 88.7072 47.9653 89.0245 48.348C89.3512 48.7213 89.5145 49.23 89.5145 49.874C89.5145 50.35 89.4399 50.8167 89.2905 51.274C89.1412 51.722 88.9312 52.128 88.6605 52.492C88.3899 52.856 88.0632 53.1453 87.6805 53.36C87.3072 53.5747 86.8872 53.682 86.4205 53.682ZM86.7425 52.17C87.2745 52.17 87.6852 52.002 87.9745 51.666C88.2639 51.33 88.4085 50.9427 88.4085 50.504C88.4085 50.1213 88.3012 49.8273 88.0865 49.622C87.8812 49.4073 87.6059 49.3 87.2605 49.3C86.9152 49.3 86.6072 49.4073 86.3365 49.622C86.0659 49.8273 85.8372 50.1027 85.6505 50.448C85.4639 50.784 85.3192 51.148 85.2165 51.54C85.4312 51.7453 85.6692 51.904 85.9305 52.016C86.2012 52.1187 86.4719 52.17 86.7425 52.17ZM92.8045 53.682C92.1605 53.682 91.6425 53.5093 91.2505 53.164C90.8679 52.8093 90.6765 52.2913 90.6765 51.61C90.6765 51.2927 90.7185 50.9847 90.8025 50.686C90.8959 50.3873 91.0172 50.1073 91.1665 49.846C91.0172 49.9393 90.9052 49.986 90.8305 49.986C90.7185 49.986 90.6392 49.9253 90.5925 49.804C90.5552 49.6733 90.5365 49.5473 90.5365 49.426C90.5365 49.2113 90.5785 49.0433 90.6625 48.922C90.7559 48.7913 90.8445 48.6933 90.9285 48.628C91.1245 48.46 91.4325 48.278 91.8525 48.082C92.2725 47.8767 92.7765 47.774 93.3645 47.774C94.1672 47.774 94.7879 47.998 95.2265 48.446C95.6745 48.894 95.8985 49.5193 95.8985 50.322C95.8985 50.9473 95.7679 51.5167 95.5065 52.03C95.2452 52.534 94.8812 52.9353 94.4145 53.234C93.9572 53.5327 93.4205 53.682 92.8045 53.682ZM93.2385 52.254C93.7052 52.254 94.0972 52.1093 94.4145 51.82C94.7412 51.5213 94.9045 51.1293 94.9045 50.644C94.9045 50.14 94.7412 49.7807 94.4145 49.566C94.0879 49.3513 93.7099 49.244 93.2805 49.244C93.0845 49.244 92.9072 49.2627 92.7485 49.3C92.5899 49.3373 92.4405 49.384 92.3005 49.44C92.1699 49.6267 92.0532 49.8367 91.9505 50.07C91.8479 50.3033 91.7965 50.56 91.7965 50.84C91.7965 51.3067 91.9365 51.6613 92.2165 51.904C92.4965 52.1373 92.8372 52.254 93.2385 52.254ZM97.5093 53.64C97.2013 53.64 96.9446 53.5607 96.7393 53.402C96.5433 53.2433 96.4453 53.0193 96.4453 52.73C96.4453 52.4313 96.534 52.1887 96.7113 52.002C96.898 51.806 97.066 51.708 97.2153 51.708C97.318 51.708 97.3926 51.764 97.4393 51.876C97.4953 51.9787 97.5653 52.0487 97.6493 52.086C97.7333 52.1233 97.8173 52.142 97.9013 52.142C98.144 52.142 98.3586 52.0253 98.5453 51.792C98.732 51.5587 98.9046 51.2413 99.0633 50.84C98.914 50.4293 98.704 50.0793 98.4333 49.79C98.1626 49.4913 97.8313 49.342 97.4393 49.342C97.3833 49.342 97.3366 49.3467 97.2993 49.356C97.262 49.356 97.2293 49.356 97.2013 49.356C97.136 49.356 97.066 49.314 96.9913 49.23C96.9166 49.1367 96.8793 48.9873 96.8793 48.782C96.8793 48.4553 96.9866 48.2127 97.2013 48.054C97.416 47.8953 97.654 47.816 97.9153 47.816C98.3073 47.816 98.6666 47.9887 98.9933 48.334C99.32 48.67 99.586 49.0993 99.7913 49.622C99.9686 49.2953 100.179 48.9967 100.421 48.726C100.673 48.446 100.939 48.2267 101.219 48.068C101.509 47.9 101.789 47.816 102.059 47.816C102.311 47.816 102.489 47.8813 102.591 48.012C102.694 48.1333 102.745 48.2733 102.745 48.432C102.745 48.5813 102.713 48.7353 102.647 48.894C102.582 49.0527 102.503 49.188 102.409 49.3C102.316 49.412 102.218 49.468 102.115 49.468C102.059 49.468 101.994 49.454 101.919 49.426C101.854 49.4073 101.775 49.3887 101.681 49.37C101.588 49.342 101.49 49.328 101.387 49.328C101.154 49.328 100.949 49.4167 100.771 49.594C100.603 49.7713 100.398 50.0933 100.155 50.56C100.258 50.812 100.393 51.0593 100.561 51.302C100.729 51.5353 100.93 51.7313 101.163 51.89C101.406 52.0487 101.681 52.128 101.989 52.128C102.045 52.128 102.097 52.128 102.143 52.128C102.19 52.1187 102.232 52.114 102.269 52.114C102.325 52.114 102.367 52.1373 102.395 52.184C102.433 52.2213 102.451 52.31 102.451 52.45C102.451 52.618 102.419 52.7953 102.353 52.982C102.288 53.1593 102.171 53.3133 102.003 53.444C101.835 53.5747 101.593 53.64 101.275 53.64C100.93 53.64 100.641 53.5513 100.407 53.374C100.174 53.1967 99.9826 52.9633 99.8333 52.674C99.6933 52.3847 99.572 52.0813 99.4693 51.764C99.2173 52.3053 98.9466 52.7533 98.6573 53.108C98.3773 53.4627 97.9946 53.64 97.5093 53.64Z" fill="#FF8A00"/>
<path d="M19.2821 46.1082H4.44336V54.5109H19.2821V46.1082Z" fill="#FF8A00"/>
<path d="M27.3198 46.1082H19.9004V54.5109H27.3198V46.1082Z" fill="#FF8A00"/>
<path d="M4.38989 45.6283L0 42.0097L16.8154 42L19.2825 45.6428L4.38989 45.6283Z" fill="#FF8A00"/>
<path d="M27.3106 45.6336L30.2613 42L23.0231 42.0139L19.9023 45.6427L27.3106 45.6336Z" fill="#FF8A00"/>
<path d="M14.2026 50.4714C14.1951 50.4384 14.1669 50.4081 14.1234 50.3863C14.0799 50.3644 14.024 50.3525 13.9663 50.3528H9.73334C9.67563 50.3525 9.61974 50.3644 9.57621 50.3863C9.53267 50.4081 9.5045 50.4384 9.497 50.4714C9.497 50.4905 9.12121 52.2989 11.7588 52.6617L11.8108 52.6685H11.8557C11.8884 52.6682 11.9205 52.664 11.9503 52.6562C14.5737 52.2921 14.2026 50.4892 14.2026 50.4714Z" fill="white"/>
<path d="M12.5154 48.4069C12.3234 48.3346 12.1067 48.2868 11.8801 48.2668C11.6534 48.2468 11.422 48.255 11.2013 48.2909C11.1617 48.2972 11.1257 48.3093 11.0967 48.326C11.0677 48.3428 11.0467 48.3636 11.0359 48.3864C10.9567 48.5439 10.9518 48.7107 11.0216 48.8696C11.0914 49.0285 11.2334 49.1739 11.4329 49.2906C11.4445 49.2976 11.4571 49.304 11.4707 49.3097C11.4919 49.3217 11.517 49.3312 11.5446 49.3375C11.5722 49.3438 11.6018 49.3469 11.6315 49.3465H12.383C12.4457 49.3465 12.5058 49.3321 12.5502 49.3066C12.5945 49.281 12.6194 49.2463 12.6194 49.2101V48.535C12.6189 48.5328 12.6189 48.5305 12.6194 48.5282C12.6219 48.5045 12.6136 48.4809 12.5953 48.4596C12.5771 48.4383 12.5495 48.4201 12.5154 48.4069Z" fill="white"/>
<path d="M13.2806 49.0737H10.4444C10.2892 49.0737 10.1356 49.0914 9.99219 49.1256C9.84882 49.1599 9.71855 49.2101 9.60881 49.2735C9.49908 49.3368 9.41204 49.4119 9.35265 49.4947C9.29326 49.5774 9.2627 49.6661 9.2627 49.7556V50.0284C9.2627 50.0646 9.2876 50.0992 9.33192 50.1248C9.37624 50.1504 9.43636 50.1648 9.49904 50.1648H14.2259C14.2886 50.1648 14.3487 50.1504 14.3931 50.1248C14.4374 50.0992 14.4623 50.0646 14.4623 50.0284V49.7556C14.4623 49.6661 14.4317 49.5774 14.3723 49.4947C14.3129 49.4119 14.2259 49.3368 14.1162 49.2735C14.0064 49.2101 13.8762 49.1599 13.7328 49.1256C13.5894 49.0914 13.4357 49.0737 13.2806 49.0737Z" fill="white"/>
<path d="M45.782 44.9808C42.0376 38.6726 26.5541 44.5649 35.1292 53.0258L33.6243 52.9482C29.0655 52.7128 28.1133 54.658 29.428 54.6916C44.5219 54.9343 30.7927 54.7142 41.5346 54.942C61.2959 55.0797 67.1817 55.2784 72.4842 51.5492C80.7723 45.7199 80.1875 40.0015 73.1209 35.2175C62.2991 27.8912 62.7359 11.8249 78.7235 9.86998C74.2256 0.665824 54.5021 -1.98386 43.2303 4.82141C24.5346 21.9947 50.5158 35.4781 59.7023 43.0547C62.3336 45.2248 66.7864 53.2997 45.5702 53.639C53.487 53.9467 57.5978 43.378 48.1207 38.4882C45.614 33.3947 40.6573 30.6995 36.8755 28.8828C38.8979 25.9784 34.3376 20.9555 33.6252 19.5888C33.1076 19.8259 32.6944 20.4894 30.7543 21.9235C29.4295 22.9026 21.0645 24.0162 21.796 29.5415C23.5572 31.7045 29.5426 30.2674 29.5426 30.2674C32.513 32.3019 26.5448 34.2037 21.7818 33.7893C17.3562 33.4274 18.0242 35.6993 18.0242 35.6993C18.5538 36.2511 17.3576 36.8514 27.016 37.26C28.0273 37.3529 29.9958 37.1796 29.9958 37.1796C29.9958 37.1796 28.7385 41.0548 34.2627 44.3936" fill="#FF8A00"/>
<path d="M45.782 44.9808C42.0376 38.6726 26.5541 44.5649 35.1292 53.0258L33.6243 52.9482C29.0655 52.7128 28.1133 54.658 29.428 54.6916C44.5219 54.9343 30.7927 54.7142 41.5346 54.942C61.2959 55.0797 67.1817 55.2784 72.4842 51.5492C80.7723 45.7199 80.1875 40.0015 73.1209 35.2175C62.2991 27.8912 62.7359 11.8249 78.7235 9.86998C74.2256 0.665824 54.5021 -1.98386 43.2303 4.82141C24.5346 21.9947 50.5158 35.4781 59.7023 43.0547C62.3336 45.2248 66.7864 53.2997 45.5702 53.639C53.487 53.9467 57.5978 43.378 48.1207 38.4882C45.614 33.3947 40.6573 30.6995 36.8755 28.8828C38.8979 25.9784 34.3376 20.9555 33.6252 19.5888C33.1076 19.8259 32.6944 20.4894 30.7543 21.9235C29.4295 22.9026 21.0645 24.0162 21.796 29.5415C23.5572 31.7045 29.5426 30.2674 29.5426 30.2674C32.513 32.3019 26.5448 34.2037 21.7818 33.7893C17.3562 33.4274 18.0242 35.6993 18.0242 35.6993C18.5538 36.2511 17.3576 36.8514 27.016 37.26C28.0273 37.3529 29.9958 37.1796 29.9958 37.1796C29.9958 37.1796 28.7385 41.0548 34.2627 44.3936" stroke="black" stroke-width="0.00995011"/>
<path d="M29.0234 37.263C33.0232 37.0664 34.7735 35.8063 34.8172 34.6393" stroke="black" stroke-width="0.00995011"/>
<path d="M29.8082 24.9958C30.3019 24.6792 30.3527 24.1456 29.9218 23.8039C29.4908 23.4622 28.7412 23.4419 28.2475 23.7585C27.7538 24.0751 27.7029 24.6088 28.1339 24.9505C28.5648 25.2921 29.3144 25.3125 29.8082 24.9958Z" fill="white"/>
<path d="M51.833 23.2257C40.5695 4.89725 74.0948 -1.2689 78.7483 9.8775C62.7607 11.8325 62.4538 27.6514 73.2757 34.9777C80.3422 39.7617 80.9561 45.5234 72.668 51.3527C71.2069 52.7417 68.5137 53.8098 65.1353 54.3776C64.2361 54.5288 63.2883 54.6445 62.3023 54.7214C84.0788 45.2217 57.3698 31.2004 51.833 23.2257Z" fill="#FFAB07"/>
</svg>
